# xmcd
#
# Track frame offsets: 
#        151
#        19994
#        38625
#        58606
#        77295
#        92878
#        111515
#        129030
#        148001
#        166276
#
# Disc length: 2463 seconds
#
# Revision: 0
# Processed by: cddbd v1.5.2PL0 Copyright (c) Steve Scherf et al.
# Submitted via: ExactAudioCopy v0.95b3
#
DISCID=7a099d0a
DTITLE=Rock Salaeng - Kha rock khaw rawng
DYEAR=1900
DGENRE=Mor lam
TTITLE0=Kha rock khaw rawng
TTITLE1=Hawp hak muea baan
TTITLE2=Law baep Lao Lao
TTITLE3=Sia hai lai saen
TTITLE4=Sao si mawk
TTITLE5=Ai ma bawk hak
TTITLE6=Kha prajam chamjai
TTITLE7=To tam yam jai
TTITLE8=Hak mai faen gao
TTITLE9=Jot ta siao
EXTD=
EXTT0=
EXTT1=
EXTT2=
EXTT3=
EXTT4=
EXTT5=
EXTT6=
EXTT7=
EXTT8=
EXTT9=
PLAYORDER=
